<?xml version="1.0" encoding="iso-8859-1"?>
<!-- Generator: Adobe Illustrator 16.0.0, SVG Export Plug-In . SVG Version: 6.00 Build 0)  -->
<!DOCTYPE svg PUBLIC "-//W3C//DTD SVG 1.1//EN" "http://www.w3.org/Graphics/SVG/1.1/DTD/svg11.dtd">
<svg version="1.1" id="Capa_1" xmlns="http://www.w3.org/2000/svg" xmlns:xlink="http://www.w3.org/1999/xlink" x="0px" y="0px"
	 width="600.836px" height="600.836px" viewBox="0 0 600.836 600.836" style="enable-background:new 0 0 600.836 600.836;"
	 xml:space="preserve">
<g>
	<g>
		<path d="M20.538,544.477c5.041,5.451,10.878,9.98,17.296,13.463c2.775,6.754,6.653,13.043,11.531,18.639
			c9.011,10.338,21.091,17.836,34.932,21.682c4.958,1.377,10.087,2.076,15.246,2.076c3.143,0,6.308-0.264,9.408-0.779
			c10.56-1.762,20.231-5.568,28.745-11.312c8.518-5.746,15.444-13.121,20.588-21.918c6.616-11.312,9.715-24.096,9.163-36.859
			l74.675-67.059c8.256,3.926,17.368,6.033,26.695,6.033c9.507,0,19.043-2.229,27.579-6.443c8.67-4.281,31.771-13.479,89.102-26.965
			c29.918-7.037,56.169-12.146,62.412-13.342c15.671-1.818,31.124-5.395,45.967-10.639c16.406-5.795,29.275-18.49,35.31-34.828
			c6.057-16.4,4.514-34.49-4.231-49.633c-11.478-19.875-16.889-42.564-15.65-65.617c1.087-20.226,7.33-39.895,18.053-56.879
			c10.425-16.512,24.922-30.352,41.922-40.022c15.145-8.614,25.591-23.399,28.66-40.565c3.064-17.137-1.6-34.593-12.795-47.892
			c-1.556-1.847-3.165-3.694-4.784-5.488c-20.352-22.565-44.766-40.112-72.562-52.155C481.029,6.379,452.597,0.5,423.29,0.5
			c-53.07,0-103.762,19.666-142.737,55.374c-31.889,29.216-53.742,66.831-63.287,108.886c-1.931,6.238-9.929,31.798-20.178,60.747
			c-19.747,55.777-31.275,77.747-36.39,85.877c-7.145,11.361-10.455,24.979-9.321,38.348c0.445,5.242,1.579,10.404,3.321,15.348
			l-74.689,67.07c-3.323-0.502-6.684-0.76-10.041-0.76c-14.621,0-29.079,4.863-40.711,13.699
			c-12.161,9.238-20.867,22.27-25.178,37.684c-2.23,7.979-2.698,16.502-1.353,24.65C5.066,521.598,11.226,534.41,20.538,544.477z
			 M258.695,175.811c7.141-32.883,24.154-63.938,50.799-88.349C341.748,57.91,382.575,43.34,423.29,43.34
			c46.11,0,92.077,18.694,125.258,55.482c1.304,1.446,2.579,2.909,3.823,4.387c6.271,7.448,4.19,18.813-4.271,23.627
			c-46.215,26.285-78.508,74.807-81.573,131.839c-1.744,32.441,6.21,63.16,21.33,89.339c4.897,8.482,0.985,19.383-8.249,22.645
			c-12.425,4.389-25.241,7.268-38.172,8.648l-0.006,0.01c0,0-97.251,18.195-148.87,37.799c-5.654,2.146-10.762,4.311-15.133,6.469
			c-2.747,1.357-5.691,2.016-8.609,2.016c-5.348,0-10.601-2.213-14.353-6.393l-12.658-14.096l-15.082-16.795l-15.082-16.797
			l-12.71-14.154c-5.763-6.418-6.562-15.873-1.97-23.176c2.545-4.047,5.184-8.818,7.872-14.133
			c24.796-49.016,53.853-144.243,53.853-144.243L258.695,175.811z M45.337,494.309c3.777-13.508,14.234-20.078,24.627-20.078
			c3.704,0.002,7.4,0.836,10.782,2.488c2.05,1.002,4.252,1.49,6.441,1.49c3.564,0,7.092-1.295,9.856-3.777l82.724-74.285
			l15.082,16.795l15.083,16.797l-82.724,74.283c-4.461,4.008-6.062,10.32-4.021,15.959c4.876,13.471-2.521,30.189-21.285,33.32
			c-0.781,0.129-1.57,0.193-2.359,0.193c-1.274,0-2.547-0.17-3.778-0.512c-12.206-3.391-18.763-12.23-19.941-21.561
			c-0.796-6.303-5.349-11.373-11.53-12.84c-9.15-2.17-17.235-9.637-19.299-22.137C44.658,498.404,44.78,496.303,45.337,494.309z"/>
		<path d="M99.543,600.836c-5.202,0-10.376-0.705-15.38-2.095c-13.936-3.871-26.099-11.422-35.175-21.835
			c-4.857-5.57-8.742-11.832-11.549-18.612c-6.44-3.517-12.25-8.051-17.269-13.478c-9.379-10.14-15.582-23.041-17.937-37.312
			c-1.357-8.219-0.885-16.817,1.364-24.866c4.34-15.521,13.108-28.643,25.357-37.947c11.716-8.899,26.281-13.801,41.013-13.801
			c3.272,0,6.595,0.246,9.881,0.73l74.267-66.69c-1.714-4.944-2.803-10.042-3.237-15.156c-1.143-13.476,2.194-27.204,9.396-38.656
			c5.103-8.11,16.608-30.04,36.342-85.778c10.15-28.672,18.005-53.731,20.171-60.728c9.555-42.106,31.491-79.847,63.427-109.107
			C319.283,19.712,370.094,0,423.29,0c29.375,0,57.874,5.893,84.707,17.515c27.863,12.072,52.335,29.661,72.734,52.279
			c1.611,1.786,3.225,3.637,4.796,5.501c11.291,13.413,15.995,31.019,12.904,48.302c-3.096,17.312-13.631,32.224-28.905,40.912
			c-16.93,9.63-31.365,23.412-41.746,39.854c-10.678,16.913-16.894,36.499-17.977,56.639c-1.232,22.956,4.156,45.55,15.584,65.34
			c8.82,15.272,10.376,33.517,4.268,50.056c-6.086,16.479-19.066,29.282-35.611,35.127c-14.871,5.254-30.373,8.842-46.076,10.664
			c-7.137,1.367-32.835,6.388-62.355,13.331c-57.271,13.473-80.341,22.653-88.995,26.927c-8.605,4.249-18.219,6.495-27.8,6.495
			c-9.126,0-18.32-2.053-26.608-5.939l-74.252,66.68c0.515,12.924-2.678,25.678-9.24,36.897
			c-5.184,8.863-12.162,16.292-20.74,22.079c-8.575,5.785-18.312,9.618-28.942,11.392
			C105.897,600.571,102.704,600.836,99.543,600.836z M69.968,431.891c-14.515,0-28.866,4.829-40.409,13.598
			c-12.073,9.171-20.717,22.11-24.999,37.42c-2.21,7.908-2.674,16.357-1.341,24.435c2.323,14.076,8.438,26.8,17.685,36.794
			c4.985,5.391,10.761,9.887,17.167,13.363l0.157,0.085l0.067,0.164c2.771,6.743,6.622,12.967,11.446,18.501
			c8.947,10.265,20.943,17.709,34.689,21.528c7.904,2.194,16.286,2.642,24.438,1.285c10.488-1.75,20.093-5.529,28.547-11.233
			c8.454-5.703,15.33-13.022,20.437-21.756c6.505-11.122,9.649-23.773,9.095-36.586l-0.01-0.235l0.176-0.158l74.923-67.281
			l0.301,0.144c8.233,3.915,17.391,5.984,26.48,5.984c9.429,0,18.889-2.21,27.358-6.392c8.692-4.292,31.84-13.508,89.208-27.003
			c29.539-6.948,55.254-11.973,62.433-13.347c15.665-1.819,31.094-5.39,45.894-10.619c16.265-5.744,29.024-18.33,35.008-34.529
			c6.004-16.26,4.476-34.196-4.195-49.21c-11.525-19.958-16.961-42.744-15.717-65.894c1.091-20.311,7.36-40.062,18.129-57.12
			c10.468-16.581,25.025-30.478,42.098-40.189c15.015-8.54,25.372-23.199,28.415-40.218c3.038-16.99-1.585-34.297-12.686-47.482
			c-1.562-1.855-3.169-3.698-4.772-5.475c-20.303-22.511-44.658-40.017-72.391-52.031C480.892,6.865,452.527,1,423.29,1
			c-52.944,0-103.516,19.619-142.399,55.243c-31.785,29.122-53.618,66.685-63.137,108.628c-2.177,7.039-10.038,32.113-20.194,60.803
			c-19.765,55.829-31.313,77.831-36.438,85.977c-7.087,11.269-10.371,24.778-9.247,38.039c0.437,5.139,1.545,10.261,3.295,15.224
			l0.111,0.314l-0.249,0.224L80.167,432.68l-0.233-0.035C76.621,432.145,73.268,431.891,69.968,431.891z M99.542,557.994
			c-1.329,0-2.645-0.179-3.912-0.53c-11.375-3.159-18.965-11.376-20.304-21.979c-0.772-6.118-5.149-10.992-11.149-12.416
			c-10.397-2.466-17.753-10.893-19.676-22.542c-0.345-2.092-0.222-4.288,0.354-6.353c3.472-12.419,13.328-20.443,25.109-20.443l0,0
			c3.802,0.002,7.606,0.88,11.001,2.539c1.926,0.941,4.078,1.439,6.221,1.439c3.52,0,6.901-1.296,9.522-3.649l83.096-74.619
			l30.833,34.336l-83.096,74.617c-4.339,3.898-5.864,9.949-3.885,15.417c2.537,7.009,1.837,14.714-1.921,21.142
			c-3.989,6.821-11.003,11.382-19.751,12.842C101.179,557.927,100.358,557.994,99.542,557.994z M69.964,474.73
			c-11.32,0-20.797,7.737-24.146,19.713c-0.538,1.925-0.652,3.972-0.331,5.921c1.855,11.237,8.929,19.361,18.921,21.731
			c6.41,1.521,11.085,6.728,11.911,13.264c1.287,10.189,8.606,18.093,19.579,21.142c1.904,0.528,3.95,0.633,5.922,0.307
			c8.45-1.41,15.216-5.8,19.052-12.36c3.607-6.17,4.279-13.567,1.844-20.297c-2.118-5.852-0.486-12.329,4.158-16.501l82.352-73.949
			l-29.497-32.848l-82.352,73.951c-2.804,2.519-6.423,3.905-10.19,3.905c-2.295,0-4.598-0.533-6.661-1.541
			C77.267,475.575,73.615,474.732,69.964,474.73L69.964,474.73z M268.817,426.102c-5.616,0-10.983-2.391-14.725-6.559
			l-55.533-61.842c-5.877-6.545-6.708-16.322-2.021-23.776c2.443-3.884,5.083-8.625,7.849-14.092
			c24.493-48.417,53.53-143.211,53.821-144.164l0.02-0.064c7.45-34.206,25.059-64.812,50.928-88.512
			c31.146-28.537,71.68-44.253,114.134-44.253c47.942,0,93.732,20.283,125.629,55.647c1.304,1.446,2.594,2.926,3.835,4.4
			c3.072,3.649,4.35,8.449,3.506,13.17c-0.85,4.749-3.733,8.835-7.913,11.213c-47.964,27.28-78.364,76.413-81.321,131.432
			c-1.681,31.269,5.672,62.065,21.264,89.062c2.432,4.211,2.861,9.238,1.179,13.793c-1.66,4.494-5.193,7.983-9.693,9.573
			c-12.317,4.351-25.165,7.265-38.188,8.663l-0.064,0.015c-0.972,0.183-97.798,18.412-148.784,37.775
			c-5.82,2.209-10.897,4.379-15.09,6.449C274.911,425.387,271.857,426.102,268.817,426.102z M259.104,176.161
			c-1.512,4.923-29.834,96.702-53.823,144.124c-2.779,5.495-5.436,10.264-7.895,14.174c-4.451,7.077-3.662,16.36,1.918,22.575
			l55.533,61.842c3.552,3.957,8.648,6.227,13.98,6.227c2.887,0,5.787-0.679,8.387-1.964c4.221-2.084,9.328-4.267,15.178-6.488
			c49.882-18.943,143.5-36.791,148.733-37.78l0.013-0.021l0.254-0.036c12.979-1.386,25.783-4.287,38.058-8.623
			c4.22-1.49,7.532-4.762,9.089-8.977c1.579-4.275,1.176-8.994-1.105-12.946c-15.689-27.165-23.088-58.154-21.396-89.616
			c2.976-55.36,33.564-104.798,81.825-132.247c3.921-2.23,6.626-6.064,7.423-10.52c0.791-4.428-0.406-8.929-3.287-12.351
			c-1.233-1.465-2.516-2.937-3.812-4.374C516.469,64.003,470.95,43.84,423.29,43.84c-42.203,0-82.497,15.623-113.458,43.99
			c-25.741,23.583-43.255,54.043-50.648,88.086L259.104,176.161z"/>
	</g>
</g>
<g>
</g>
<g>
</g>
<g>
</g>
<g>
</g>
<g>
</g>
<g>
</g>
<g>
</g>
<g>
</g>
<g>
</g>
<g>
</g>
<g>
</g>
<g>
</g>
<g>
</g>
<g>
</g>
<g>
</g>
</svg>
